<svg xmlns="http://www.w3.org/2000/svg" viewBox="-100 -100 200 200" width="200" height="200">
  <g fill="#225430">
    <circle cx="-85.25" cy="13.42" r="1.63"/>
    <circle cx="-77.50" cy="26.85" r="1.87"/>
    <circle cx="-69.75" cy="40.27" r="1.96"/>
    <circle cx="-62.00" cy="53.69" r="1.87"/>
    <circle cx="-54.25" cy="67.12" r="1.63"/>
    <circle cx="-85.25" cy="-13.42" r="1.63"/>
    <circle cx="-77.50" cy="0.00" r="2.12"/>
    <circle cx="-69.75" cy="13.42" r="2.46"/>
    <circle cx="-62.00" cy="26.85" r="2.62"/>
    <circle cx="-54.25" cy="40.27" r="2.62"/>
    <circle cx="-46.50" cy="53.69" r="2.46"/>
    <circle cx="-38.75" cy="67.12" r="2.12"/>
    <circle cx="-31.00" cy="80.54" r="1.63"/>
    <circle cx="-77.50" cy="-26.85" r="1.87"/>
    <circle cx="-69.75" cy="-13.42" r="2.46"/>
    <circle cx="-62.00" cy="0.00" r="2.87"/>
    <circle cx="-54.25" cy="13.42" r="3.12"/>
    <circle cx="-46.50" cy="26.85" r="3.20"/>
    <circle cx="-38.75" cy="40.27" r="3.12"/>
    <circle cx="-31.00" cy="53.69" r="2.87"/>
    <circle cx="-23.25" cy="67.12" r="2.46"/>
    <circle cx="-15.50" cy="80.54" r="1.87"/>
    <circle cx="-69.75" cy="-40.27" r="1.96"/>
    <circle cx="-62.00" cy="-26.85" r="2.62"/>
    <circle cx="-54.25" cy="-13.42" r="3.12"/>
    <circle cx="-46.50" cy="0.00" r="3.45"/>
    <circle cx="-38.75" cy="13.42" r="3.62"/>
    <circle cx="-31.00" cy="26.85" r="3.62"/>
    <circle cx="-23.25" cy="40.27" r="3.45"/>
    <circle cx="-15.50" cy="53.69" r="3.12"/>
    <circle cx="-7.75" cy="67.12" r="2.62"/>
    <circle cx="0.00" cy="80.54" r="1.96"/>
    <circle cx="-62.00" cy="-53.69" r="1.87"/>
    <circle cx="-54.25" cy="-40.27" r="2.62"/>
    <circle cx="-46.50" cy="-26.85" r="3.20"/>
    <circle cx="-38.75" cy="-13.42" r="3.62"/>
    <circle cx="-31.00" cy="0.00" r="3.87"/>
    <circle cx="-23.25" cy="13.42" r="3.95"/>
    <circle cx="-15.50" cy="26.85" r="3.87"/>
    <circle cx="-7.75" cy="40.27" r="3.62"/>
    <circle cx="0.00" cy="53.69" r="3.20"/>
    <circle cx="7.75" cy="67.12" r="2.62"/>
    <circle cx="15.50" cy="80.54" r="1.87"/>
    <circle cx="-54.25" cy="-67.12" r="1.63"/>
    <circle cx="-46.50" cy="-53.69" r="2.46"/>
    <circle cx="-38.75" cy="-40.27" r="3.12"/>
    <circle cx="-31.00" cy="-26.85" r="3.62"/>
    <circle cx="-23.25" cy="-13.42" r="3.95"/>
    <circle cx="-15.50" cy="0.00" r="4.12"/>
    <circle cx="-7.75" cy="13.42" r="4.12"/>
    <circle cx="0.00" cy="26.85" r="3.95"/>
    <circle cx="7.75" cy="40.27" r="3.62"/>
    <circle cx="15.50" cy="53.69" r="3.12"/>
    <circle cx="23.25" cy="67.12" r="2.46"/>
    <circle cx="31.00" cy="80.54" r="1.63"/>
    <circle cx="-38.75" cy="-67.12" r="2.12"/>
    <circle cx="-31.00" cy="-53.69" r="2.87"/>
    <circle cx="-23.25" cy="-40.27" r="3.45"/>
    <circle cx="-15.50" cy="-26.85" r="3.87"/>
    <circle cx="-7.75" cy="-13.42" r="4.12"/>
    <circle cx="0.00" cy="0.00" r="4.20"/>
    <circle cx="7.75" cy="13.42" r="4.12"/>
    <circle cx="15.50" cy="26.85" r="3.87"/>
    <circle cx="23.25" cy="40.27" r="3.45"/>
    <circle cx="31.00" cy="53.69" r="2.87"/>
    <circle cx="38.75" cy="67.12" r="2.12"/>
    <circle cx="-31.00" cy="-80.54" r="1.63"/>
    <circle cx="-23.25" cy="-67.12" r="2.46"/>
    <circle cx="-15.50" cy="-53.69" r="3.12"/>
    <circle cx="-7.75" cy="-40.27" r="3.62"/>
    <circle cx="0.00" cy="-26.85" r="3.95"/>
    <circle cx="7.75" cy="-13.42" r="4.12"/>
    <circle cx="15.50" cy="0.00" r="4.12"/>
    <circle cx="23.25" cy="13.42" r="3.95"/>
    <circle cx="31.00" cy="26.85" r="3.62"/>
    <circle cx="38.75" cy="40.27" r="3.12"/>
    <circle cx="46.50" cy="53.69" r="2.46"/>
    <circle cx="54.25" cy="67.12" r="1.63"/>
    <circle cx="-15.50" cy="-80.54" r="1.87"/>
    <circle cx="-7.75" cy="-67.12" r="2.62"/>
    <circle cx="0.00" cy="-53.69" r="3.20"/>
    <circle cx="7.75" cy="-40.27" r="3.62"/>
    <circle cx="15.50" cy="-26.85" r="3.87"/>
    <circle cx="23.25" cy="-13.42" r="3.95"/>
    <circle cx="31.00" cy="0.00" r="3.87"/>
    <circle cx="38.75" cy="13.42" r="3.62"/>
    <circle cx="46.50" cy="26.85" r="3.20"/>
    <circle cx="54.25" cy="40.27" r="2.62"/>
    <circle cx="62.00" cy="53.69" r="1.87"/>
    <circle cx="0.00" cy="-80.54" r="1.96"/>
    <circle cx="7.75" cy="-67.12" r="2.62"/>
    <circle cx="15.50" cy="-53.69" r="3.12"/>
    <circle cx="23.25" cy="-40.27" r="3.45"/>
    <circle cx="31.00" cy="-26.85" r="3.62"/>
    <circle cx="38.75" cy="-13.42" r="3.62"/>
    <circle cx="46.50" cy="0.00" r="3.45"/>
    <circle cx="54.25" cy="13.42" r="3.12"/>
    <circle cx="62.00" cy="26.85" r="2.62"/>
    <circle cx="69.75" cy="40.27" r="1.96"/>
    <circle cx="15.50" cy="-80.54" r="1.87"/>
    <circle cx="23.25" cy="-67.12" r="2.46"/>
    <circle cx="31.00" cy="-53.69" r="2.87"/>
    <circle cx="38.75" cy="-40.27" r="3.12"/>
    <circle cx="46.50" cy="-26.85" r="3.20"/>
    <circle cx="54.25" cy="-13.42" r="3.12"/>
    <circle cx="62.00" cy="0.00" r="2.87"/>
    <circle cx="69.75" cy="13.42" r="2.46"/>
    <circle cx="77.50" cy="26.85" r="1.87"/>
    <circle cx="31.00" cy="-80.54" r="1.63"/>
    <circle cx="38.75" cy="-67.12" r="2.12"/>
    <circle cx="46.50" cy="-53.69" r="2.46"/>
    <circle cx="54.25" cy="-40.27" r="2.62"/>
    <circle cx="62.00" cy="-26.85" r="2.62"/>
    <circle cx="69.75" cy="-13.42" r="2.46"/>
    <circle cx="77.50" cy="0.00" r="2.12"/>
    <circle cx="85.25" cy="13.42" r="1.63"/>
    <circle cx="54.25" cy="-67.12" r="1.63"/>
    <circle cx="62.00" cy="-53.69" r="1.87"/>
    <circle cx="69.75" cy="-40.27" r="1.96"/>
    <circle cx="77.50" cy="-26.85" r="1.87"/>
    <circle cx="85.25" cy="-13.42" r="1.63"/>
  </g>
</svg>
